<svg xmlns="http://www.w3.org/2000/svg" fill="currentColor" aria-hidden="true" viewBox="356 244 716 255"><path d="m888 268 6 2a45 45 0 0 1-4.4 17.4l-1 2.3a371 371 0 0 1-10.3 20q-3 5.5-5.3 11.3a209 209 0 0 1-8.8 18.1 264 264 0 0 0-9 18q-2.7 6.2-6.1 12l-6.7 12-1.4 2.6q-3.7 6.6-7 13.3l-4.3 8.2-1.2 2.3-13.2 24.2-1.7 3.2q-2.5 5-4.6 10.1l-3.7 7.4-1 2-2.3 4.6 1.5-.7A289 289 0 0 1 870 436q12-2.5 24-5.7l3.4-.8 3.2-1 2.9-.7a24 24 0 0 0 6.5-3.9c3.1-.2 3.1-.2 6.5-.2 4.5 0 4.5 0 8-2.4 1-2 1-2 1.7-4.2 5.6-15.7 25.1-29.3 39.2-36.1a31 31 0 0 1 16.6-2c3.6 2.2 6.3 4.7 7.6 8.9.3 4-.1 6.4-2.4 9.8A82 82 0 0 1 965 415l-2.3 1.4c-10.2 6-21.6 10.5-32.7 14.6-.3 5.2-.2 8.7 3 13 7.8 6.9 18.8 5.8 28.5 5.2q8.4-1 16.5-3.2l8.2-1.6 2-.3 9-1.7 2.9-.5 2.4-.4 7.3-1.9q8-2.2 16-4.1l3.7-1q10.2-2.5 20.5-4.5l7.6-1.6 3.7-.8 2.7-.6a25 25 0 0 1-7.9 5.7l-2.5 1.3c-2.7 1-4.7 1.2-7.6 1v2l-2.8.7a413 413 0 0 0-18.3 5.2l-17.7 5.3-2.7.8a88 88 0 0 1-15.5 3l-7 2a132 132 0 0 1-30.2 4.4h-3c-8.8.2-15.5-2.4-22.2-8.1-4-4.5-5.5-10-5.8-15.9l.2-2.4h-4.3l-2.4.1c-2.3-.1-2.3-.1-4.4-.7-2.8-.6-4.3 1-6.7 2.4-4.1 2.2-8.7 3.3-13.2 4.6l-6.8 2-5.2 1.7-2.4.7a185 185 0 0 1-13.9 3.6 203 203 0 0 0-20.5 6l-3.5 1.2A171 171 0 0 0 819 461l-3.4 1.6a104 104 0 0 0-20 12.3c-4 3.1-4 3.1-6.9 3-1.7-.9-1.7-.9-3.7-2.9 0-5.2 2.5-8.8 5.2-13a306 306 0 0 0 12.7-23.8 520 520 0 0 1 18.5-34.5q3.2-5.6 5.9-11.3l6.2-12L853 343l1.2-2.3a725 725 0 0 0 13-27l1.5-3.2q3.6-7.8 6.9-15.8 3-7.2 6.6-14.1A120 120 0 0 0 888 268m-317-15 3 2c1.2 6.6-.9 10.4-4.6 15.8a347 347 0 0 1-22.3 26.8l-9 10.9-5.5 6.4a21 21 0 0 0-4.6 8.1c-3.9-.9-3.9-.9-5-2-.4-3.8 0-5.7 2.5-8.6q3.9-4.8 7.4-9.9A84 84 0 0 1 543 291q5.4-5.7 10-12l2.4-3a110 110 0 0 0 10.6-16 275 275 0 0 0-43 22.7l-2.6 1.6a311 311 0 0 0-15 10l-9.8 6.6-2 1.3-8.7 5.9q-8.7 5.7-17.2 11.8l-15.3 10.7q-17.3 12-33.7 25.1l-4.8 3.7-2.7 2.1-2.4 1.8c-2 1.7-2 1.7-2.8 4.7a446 446 0 0 0 43-9.4l14-3.7 2-.5 14.2-3.6 3.5-.9 6.5-2c3.8-1.2 7.2-1.7 10.8.1v2h2c-.3 2.9-.3 2.9-1 6-2 1.4-2 1.4-4 2v2l-4.7 4-9.9 8-1.7 1.6-3.5 3c-4 3.4-4 3.4-6.2 3.4v2c-3.5 3-3.5 3-6 3v2l-4.4 3.6a225 225 0 0 0-13.2 11.3l-6.2 5.4-7.5 6.8-1.7 1.6-3.5 3.3c-2.5 2.3-4.2 4-7.5 5l-2 4-3.4 3q-5.5 4.7-10.5 9.8l-1.5 1.5c-2.6 2.6-2.6 2.6-4.6 5.7h-2l-.7 1.7a32 32 0 0 1-5.9 7.3c-11.5 11.3-11.5 11.3-17.4 25 6.6.5 11.7-1.4 17.7-3.7l2.8-1A258 258 0 0 0 413 469a936 936 0 0 1 46-19.8l7.3-3a528 528 0 0 1 28.4-10.4l6.7-2.5c3.6-1.3 3.6-1.3 6.6-1.3l-1 3h-2v2a321 321 0 0 1-21.9 9.8 593 593 0 0 0-24 10.1l-15.2 6.6a330 330 0 0 0-17.4 8l-3 1.4-15.4 7.6a92 92 0 0 1-11 4.8q-5 1.8-9.8 3.8a24 24 0 0 1-18.2.7 16 16 0 0 1-5.1-6.8c-.4-10 8-18.4 14.3-25.4 1.7-1.6 1.7-1.6 3.7-1.6l.8-1.7c2.5-4.8 6.3-8.5 10.2-12.3l1.8-1.9 1.9-2 1.8-1.7c1.5-1.4 1.5-1.4 3.5-1.4l.7-1.7c1.5-2.7 3.3-4.3 5.6-6.2q5-4.5 9.7-9.1a259 259 0 0 1 15.9-15.2l7.6-6.8 15-13.3a763 763 0 0 1 21.2-17.8c2.4-1.9 2.4-1.9 4.5-4.1 1.8-1.8 1.8-1.8 3.8-1.8v-2l-2.3.7a601 601 0 0 1-27.2 7.8A999 999 0 0 1 422 374l-2.4.6a35 35 0 0 1-19.5.3c-3.1-1.9-3.1-1.9-4.5-5.6l-.6-3.3q5.4-5.4 11-10.6l1.5-1.5C415 347 415 347 419 347v-2l4.6-3.4 2.8-1.9 5.5-3.6q4.4-3 8.5-6.1 4.5-3.4 9.5-6.2c3-1.7 3-1.7 5.3-3.6a115 115 0 0 1 10.1-7l2-1.2 4.7-3 1 2h2l-1-3c3.6-3.1 6.4-5.5 11-7l1 2v-4c2-1.8 2-1.8 4.9-3.6l3-2.1 3.4-2.1 3.2-2q4.7-3.2 9.5-6.2l3-2 15.4-9.4 5.6-3.5q8.9-5.7 18.4-10.5l2-1c11-5.4 11-5.4 16.6-3.6m-14.9 124.6c2 .3 2 .3 4.9 1.4.7 7.3-1.4 11.8-5 18q13.8-3.7 26.6-9.8c4-1.8 7-2.7 11.4-2.2 2 1.8 2 1.8 3 4-.3 4-2.6 6-5.4 8.8A190 190 0 0 0 564 438l-1.8 3.2a22 22 0 0 0-1.9 8.2l-.2 2.6-.1 2a195 195 0 0 0 19-14l5.6-4.6 2.7-2.2 7.6-6a86 86 0 0 0 9.1-8.2l3.6-3.2A365 365 0 0 0 628 397l2-1.9a62 62 0 0 0 8-9.1c2.9.6 3.9.9 6 3-.3 5.3-1.7 8.7-4.4 13.1A144 144 0 0 0 619 454l4-1c-.2 2.4-.2 2.4-1 5-2.4 1.4-2.4 1.4-5 2-3-1-3-1-4.2-2.8-5-13.3 4-30.2 9.4-42.4a60 60 0 0 1 3.8-6.8 111 111 0 0 0-11.6 10.6c-8.7 8.8-8.7 8.8-13.4 12.4h-2l-1 3-3.4 3.1q-4.8 4-9.5 8.3A263 263 0 0 1 570 458l-2 1.7c-2.5 1.6-4 1.7-7 1.7l-2.6.1c-3.3-.7-4.4-1.8-6.4-4.5-3.3-16.5 8.5-31.9 17-45a344 344 0 0 1 11-15l-2 1c-18.8 8.7-18.8 8.7-29 8l-.6 2c-1.8 4-4.3 7.1-7 10.6l-3.2 4.3-1.7 2q-3 4.2-6.2 8.3l-2.1 3-4.5 5.9-10.5 13.7A74 74 0 0 0 506 467c-2.9-.6-3.9-.9-6-3 .1-5.9 2.1-9 6-13.2l3-3.4 1.5-1.7q4.4-5.3 8.4-11l7.1-8.7q2.6-3.2 5-6.5l1.3-1.6 5.9-8.2c1.8-2.7 1.8-2.7 3.8-4.7-.1-2-.1-2-.6-4.1-.9-6.8 1.7-10.4 5.6-15.7 5.7-7 5.7-7 9.1-7.6"/><path d="m888 268 6 2a45 45 0 0 1-4.4 17.4l-1 2.3a371 371 0 0 1-10.3 20q-3 5.5-5.3 11.3a209 209 0 0 1-8.8 18.1 264 264 0 0 0-9 18q-2.7 6.2-6.1 12l-6.7 12-1.4 2.6q-3.7 6.6-7 13.3l-4.3 8.2-1.2 2.3-13.2 24.2-1.7 3.2q-2.5 5-4.6 10.1l-3.7 7.4-1 2-2.3 4.6 1.5-.7A289 289 0 0 1 870 436q12-2.5 24-5.7l3.4-.8 3.2-1 2.9-.7a24 24 0 0 0 6.5-3.9q3.9-.6 7.8-.7h2l5.2-.3-1 3h-8v2h-2v2h2v2l-3.6-.7c-4-.6-6 .3-9.3 2.5-4 2.3-8.6 3.3-13 4.6l-7 2-5.1 1.7-2.4.7a185 185 0 0 1-13.9 3.6 203 203 0 0 0-20.4 6l-3.5 1.2A171 171 0 0 0 819 461l-3.4 1.6a104 104 0 0 0-20 12.3c-4 3.1-4 3.1-6.9 3-1.7-.9-1.7-.9-3.7-2.9 0-5.2 2.5-8.8 5.2-13a306 306 0 0 0 12.7-23.8 520 520 0 0 1 18.5-34.5q3.2-5.6 5.9-11.3l6.2-12L853 343l1.2-2.3a725 725 0 0 0 13-27l1.5-3.2q3.6-7.8 6.9-15.8 3-7.2 6.6-14.1A120 120 0 0 0 888 268m-317-15 3 2c1.2 6.6-.9 10.4-4.6 15.8a347 347 0 0 1-22.3 26.8l-9 10.9-5.5 6.4a21 21 0 0 0-4.6 8.1c-3.9-.9-3.9-.9-5-2-.4-3.8 0-5.7 2.5-8.6q3.9-4.8 7.4-9.9A84 84 0 0 1 543 291q5.4-5.7 10-12l2.4-3a110 110 0 0 0 10.6-16 275 275 0 0 0-43 22.7l-2.6 1.6a311 311 0 0 0-15 10l-9.8 6.6-2 1.3-8.7 5.9q-8.7 5.7-17.2 11.8l-15.3 10.7q-17.3 12-33.7 25.1l-7.5 5.8-2.3 1.8c-2.1 1.7-2.1 1.7-3.9 4.7h-5c.4 2 .4 2 2 4q4.2 1 8.6 1.2l2.4.3 6 .5v1c-7.7 1.6-15.2 2.3-22-2-1.4-3.7-1.4-3.7-2-7q5.4-5.4 11-10.6l1.5-1.5C415 347 415 347 419 347v-2l4.6-3.4 2.8-1.9 5.5-3.6q4.4-3 8.5-6.1 4.5-3.4 9.5-6.3c3-1.6 3-1.6 5.3-3.5a115 115 0 0 1 10.1-7l2-1.2 4.7-3 1 2h2l-1-3c3.6-3.2 6.4-5.5 11-7l1 2v-4c2-1.8 2-1.8 4.9-3.6l3-2.1 3.4-2.1 3.2-2q4.7-3.2 9.5-6.2l3-2 15.4-9.4 5.6-3.5q8.9-5.7 18.4-10.5l2-1c11-5.4 11-5.4 16.6-3.6m134 132c3 2.2 3 2.2 5 5 .4 2.7.4 2.7 0 5l-2 2c-2.6-.3-2.6-.3-5-1l-1-2c-10.4.5-18.3 8.5-25.1 15.6A103 103 0 0 0 665 427l-1.4 2.3c-3.2 5.3-3.2 10.6-2.6 16.7.7 3.1.7 3.1 3 4.2 7.7 2 15.2.4 22.8-1.5l3-.6q10.3-2.5 20.2-6.1l6.3-2a75 75 0 0 0 11.6-5q3.7-1.8 7.7-3.3A437 437 0 0 0 757 422v3c-7.7 7-7.7 7-12 7v2c-14.1 7.2-28 13.9-43 19-5 1.8-5 1.8-9.9 4a45 45 0 0 1-29.5 2 26 26 0 0 1-9.6-12c-1.4-16.7 4.6-28.4 15-41 8.8-10 22.2-24.3 37-21"/><path d="M500 348v2h2c-.2 2.9-.2 2.9-1 6-2 1.4-2 1.4-4 2v2c-3.4 3.5-7.4 7.4-12.2 8.5-2 0-2 0-4.8-.5v4l-5 1v2h-2l-1-3h2l.5-2.6c2-4.7 5.3-7.5 9.5-10.4h2v-2l-2.3.7a804 804 0 0 1-37 10.3l-7 1.9c-19.5 5-19.5 5-29.7 4.1l-2.4-.2c-5.2-.5-5.2-.5-7.6-2.8v-3l5-2v2c8.8-1 17-2.4 25.6-4.8q8.3-2.2 16.7-4.1a608 608 0 0 0 34.7-9.3l3.8-1.1 3.2-1c3.8-.9 7.4-1.5 11 .3"/><path d="m507 285 2 3h-2v2l3 1-18.4 12.6a1132 1132 0 0 0-40 27.6l-11 7.9a259 259 0 0 0-22.8 17.5q-4.4 3.9-9.3 7.2c-1.8 1.3-1.8 1.3-3.5 4.2h-5c.4 2 .4 2 2 4q4.2 1 8.6 1.2l2.4.3 6 .5v1c-7.7 1.6-15.2 2.3-22-2-1.4-3.7-1.4-3.7-2-7q5.4-5.4 11-10.6l1.5-1.5C415 347 415 347 419 347v-2l4.6-3.4 2.8-1.9 5.5-3.6q4.4-3 8.5-6.1 4.5-3.4 9.5-6.3c3-1.6 3-1.6 5.3-3.5a115 115 0 0 1 10.1-7l2-1.2 4.7-3 1 2h2l-1-3c3.6-3.2 6.4-5.5 11-7l1 2v-4c2-1.7 2-1.7 4.6-3.5l2.9-1.8 3-2 3-2zm97 134 7 2-5 5-2.7 2.8C601 431 601 431 599 431l-1 3-3.4 3.1q-4.8 4-9.5 8.3A263 263 0 0 1 570 458l-2 1.7c-2.5 1.6-4 1.7-7 1.7l-2.6.1c-3.3-.7-4.4-1.8-6.4-4.5-2.5-12.6 3.8-23.5 10-34 1 3 1 3.9 0 7 .4 2.1.4 2.1 1 4h2c-1.8 5.6-1.8 5.6-3 7.9a20 20 0 0 0-1.6 7.4l-.2 2.6-.2 2.1a195 195 0 0 0 19-14l5.6-4.6 2.7-2.2 7.6-6a76 76 0 0 0 9.1-8.2m-57-33 1 2-1 3 2 1h-3c-1 2.9-1 5.1-.5 8 .5 4 .5 4-.5 7l4 1c-22.3 30.8-22.3 30.8-34 45.6a87 87 0 0 0-9 13.4c-2.9-.6-3.9-.9-6-3 .1-5.9 2.1-9 6-13.2l3-3.4 1.5-1.7q4.4-5.3 8.4-11l7.1-8.7q2.6-3.2 5-6.5l1.3-1.6 5.9-8.2c1.8-2.7 1.8-2.7 3.8-4.7-.1-2-.1-2-.6-4.1-.8-5.2.7-8.6 3.6-12.9zm292-16c2 3 2 3 2 5l2-1v-2l4 1-.9 1.6-4 7-1.3 2.5L834 397l-4.3 8.2-1.2 2.3-11.3 20.8c-3.8 6.8-3.8 6.8-7 13.9-1.2 2.8-1.2 2.8-3.2 4.8l-1-3h2v-3h-2v2l-4-1 1 5-4-1q10.4-21.5 22.4-42.3a191 191 0 0 0 5.8-11.2l7.2-13.8 1.4-2.5zm225 58-6.2 3.5-3.5 2a13 13 0 0 1-8.3 1.5v2l-2.8.7a413 413 0 0 0-18.3 5.2l-17.7 5.3-2.7.8a88 88 0 0 1-15.5 3l-10.6 3.1a25 25 0 0 1-8.4.9v-2l4-2-2-1v-2l-4-1 1.8-.3c20.2-3.3 20.2-3.3 40-8q8-2.3 16-4.2l3.7-1a338 338 0 0 1 18.4-4q5.9-1.4 11.6-3c2.5-.5 2.5-.5 4.5.5m-359-43c3 2.2 3 2.2 5 5 .4 2.7.4 2.7 0 5l-2 2c-2.6-.2-2.6-.2-5-1l-1-2c-11.1.6-19.5 9.7-26.6 17.4a100 100 0 0 0-7.7 10.4 12 12 0 0 1-5.7 4.2l-1-5h-2a68 68 0 0 1 32.4-34.4A22 22 0 0 1 705 385m277 2c0 4.5-1.4 6.8-4.4 10-8.7 8-30 23-42.6 23 1.4-9.1 12-17.7 19-23 9-6.2 16.8-10.4 28-10"/><path d="M806 441h2v3h-2l.7 2.2c.4 3.5-.5 5-2.1 8.1L803 457l-1.1 2 2.5-1.3c7.1-3.6 11.6-5.6 19.5-3.7a13 13 0 0 1-8.2 8.9l-2.1.9a86 86 0 0 0-18.2 11.1c-4 3.1-4 3.1-6.8 3-1.7-.9-1.7-.9-3.7-2.9 0-5.3 2.6-9 5.3-13.3q3.4-5.6 6.2-11.4a9 9 0 0 1 5.5-4.3v-4l4 1zm-298-9-1 3h-2v2a321 321 0 0 1-21.9 9.8A526 526 0 0 0 459 457a163 163 0 0 1-18 7v-3l6-2-2-2-2 2-1-3 15.2-6q10.5-4.2 21-8 4.6-1.6 9-3.4l3.1-1.2 6.4-2.4 3.1-1.2 2.8-1c2.4-.8 2.4-.8 5.4-.8m-1-147 2 3h-2v2l3 1-18.4 12.6-20 13.5-2.4 1.6-2.3 1.6-2 1.4-4 3C459 326 459 326 457 326v-2l-4-1q5.5-5.8 12.3-9.8l2-1.2 4.7-3 1 2h2l-1-3c3.6-3.1 6.4-5.5 11-7l1 2v-4c2-1.7 2-1.7 4.6-3.4l2.9-2 3-1.9 3-2zm465 94c9-.6 9-.6 13 1.8 3.5 3.8 4.8 6.5 4.7 11.6-2.5 9.6-13.4 15.9-21.4 20.7L959 418v-5h-2l-1-3 2-1c14.6-7.5 14.6-7.5 23.8-20.4l.2-1.6h-7v-2h3v-2h2v-3h-8zm-84-111 6 2a46 46 0 0 1-4.6 17.8l-1.1 2.3q-4.7 10.2-10.3 19.9l-7-1a31 31 0 0 1 2.8-10.2l1-2.4 1.2-2.4 2-4.5 2-4.6 1-2.2a307 307 0 0 1 7-14.7"/><path d="M980 380v3h-2v2h-3l-1 3c-2.1.9-2.1.9-4.9 1.7a45 45 0 0 0-14.6 8.6 14 14 0 0 1-7.5 2.7l-2-1-1-5c11.2-9 21-16.4 36-15m-290-33v2l-7.2 2.3-2.2.7a135 135 0 0 1-13.6 3.5c-5 1-8.3 2.7-12.4 5.6-1.6.9-1.6.9-4.5.8-2.1-.9-2.1-.9-4.1-2.9 0-3 0-3 1-6 5.5-3 10.9-3.9 17-4.7l2.8-.4a135 135 0 0 1 23.2-.9m374 81-6.2 3.5-3.5 2a13 13 0 0 1-8.3 1.5v2l-2.8.7a418 418 0 0 0-19 5.4q-7.4 2.3-15.2 3.9l1-6-4-1 38-8.7q8-1.7 15.8-3.9c2.2-.4 2.2-.4 4.2.6M542 263l.4 1.8c.6 2.5.6 2.5 2.6 5.2l-1.7 1-11 6.2a188 188 0 0 0-18 11.5 11 11 0 0 1-7.3 1.3c.6-3.3 1.3-5.4 3.9-7.6l7.1-4.4 3.5-2.6a91 91 0 0 1 10.2-6.1q5.3-3 10.3-6.3m75 165 4 3v2h3l-.6 1.8A136 136 0 0 0 619 454l4-1c-.2 2.4-.2 2.4-1 5-2.4 1.4-2.4 1.4-5 2-3-1-3-1-4.2-2.8-3.3-8.8.3-18.7 3.2-27.2zm140-6v3c-7.7 7-7.7 7-12 7v2l-12.2 6.1-5.1 2.6C725 444 725 444 723 444v-3l-2-2a37 37 0 0 1 11.8-6.2A403 403 0 0 0 757 422m-319-21c2 1 2 1 3 3.1 0 3.5-.6 4-3 6.3l-4 3.6-1.7 1.8c-4.6 4.6-8.9 5.2-15.3 5.2a47 47 0 0 1 21-20m-37 76 1 2 2 2-9 2v3a35 35 0 0 1-19 4c.7-2.4.7-2.4 2-5 2.6-.8 2.6-.8 5-1v-3c11.3-4.6 11.3-4.6 18-4m68-123 1 5h6a21 21 0 0 1-7 3.3l-2.5.7-2.4.6-2.5.7c-3.8 1-6.6 1.7-10.6 1.7v-3l-9-2v-1l3.7-.8 5-1 2.4-.6q5.2-1.1 10.3-2.7c2.6-.9 2.6-.9 5.6-.9m395 85c-1 2-1 2-2 3h3v3c-10.4 3.6-10.4 3.6-16 2v-2h-2v3a25 25 0 0 1-10 3c1.8-6.3 1.8-6.3 4.8-8l7-2 2.4-.6A42 42 0 0 1 864 439m-316-53 7 1v3h-2l.6 3.3c.3 3.1.4 4.8-.6 7.7l3 1a17 17 0 0 1-7 5h-4l-1-3h2l-1-2v-6l-2-1 2-1.7c2.2-2.5 2.6-4 3-7.3m373 46h3l2 8h3l1-2 1 2.8c2.5 4.1 4.7 5 9 7.2l-1 2h-7v2h3v3c-4.8-1.4-8-4-11-8a28 28 0 0 1-3-15m14 19 2 1Zm-73-126h4c1.7 7.4.4 11.1-3.5 17.6L859 348h-4v-3l2-1v-2h-2c.6-4.2 2.1-7.5 4-11.3l1.7-3.2z"/><path d="m926 420 2 1c.6 1.9.6 1.9 1 4l1 3-.4 6.2-.6 5.8-3 1-3-8-7-1v-2h-2v-2l-1-1 1-2h10v-3h2zm-473-31 5 2a81 81 0 0 1-16 15c-2-1-2-1-4-4l-4 2c4.5-5.6 9.2-9.8 15-14l2 1v2h2zm271 51c-.1 2.3-.1 2.3-1 5a47 47 0 0 1-21 6l-1-5 9-4 2.2-1c4.3-1.8 7.2-2.3 11.8-1m115-70c2 3 2 3 2 5l2-1v-2l4 1-4.9 8.8-1.4 2.5-1.3 2.5-1.2 2.2-3.2 5-2-1 1-5-3-1c1.7-6.2 4.9-11.5 8-17m-48 91c.9 3.1 1 4.9 0 8h2v2l3-2-1-5h5v2h7l-10.6 8.3-2.8 2.2c-2.6 1.5-2.6 1.5-4.8 1.4-1.8-.9-1.8-.9-3.8-2.9.1-5.6 3-9.5 6-14"/><path d="m700 445 3 1h-2l1 4 6-1v2q-7.3 3.2-15 5.4c-2 .4-2 .4-3 1.6h-5v-2h2l1-3-7-2v-1l3.7-.8 4.7-1.1 2.4-.6 2.3-.5 2.1-.5c1.9-.5 1.9-.5 3.8-1.5m257-34v2l3-1c.3 4.4.3 4.4-1 7-4.5 2.8-9.5 5.3-14.9 4.6l-2.1-.6c-1-3-1-3-.4-5 2-2.8 4.2-3.5 7.4-4.7l3.3-1.4c2.7-.9 2.7-.9 4.7-.9m-546 61v2l1.8-1c2.5-1.2 3.6-1 6.2 0v2l-7.5 3.9-2.1 1A56 56 0 0 1 395 485v-2l7-3-4-1h3v-2l-4 1v-2l4.8-2 2.6-1.1c2.6-.9 2.6-.9 6.6-.9m163.8-25.7 2.2.7 1 4-3.7 3.3-2.1 1.9-2.2 1.8-2 1.8-2 1.2-3-1 1-2h3v-2h-4v2l-3-1v-2h2v-2c2-1.8 2-1.8 4.7-3.7l2.6-2c2.7-1.3 2.7-1.3 5.5-1M883 292l2 1c-.6 4.2-2.1 7.5-4 11.3l-1.7 3.2-1.3 2.5-7-1a27 27 0 0 1 4-12c2.5-1.7 2.5-1.7 5-3zM562 423c1 3 1 3.9 0 7 .4 2.1.4 2.1 1 4h2c-1.2 4-2.4 6.9-5 10v-2c-2.5.7-2.5.7-5 2-.9 2-.9 2-1 4h-2c.5-5.9 2.3-10.1 5-15.3l1.1-2.2 2.9-5.5zM451 323l6 1c-.4 2.6-.8 3.8-2.7 5.6l-2.2 1.6-2.4 1.7-2.6 1.8-2.5 1.8c-6.1 4.4-6.1 4.4-9.6 5.5v-2h2l1-4 7-2v-2l-3 1-2-3 2.1-1.3 2.8-1.6 2.8-1.7c2.2-1.2 2.2-1.2 3.3-2.4m106.7 55.3 3.3.7c.3 8.6.3 8.6-2 12h-3v2h-2l1-6-7-1c2.2-5 4-8.1 9.8-7.7M1064 428l-6.2 3.5-3.5 2a13 13 0 0 1-8.3 1.5v2l-9 1v-2l-5-1c3.4-2 6.7-2.7 10.5-3.4a271 271 0 0 0 17.2-4.1c2.3-.5 2.3-.5 4.3.5m-139-5-1 3h-8v2h-2v2h2v2l-3.6-.7a10 10 0 0 0-8 1.6c-3.4 2-4.7 2.6-8.4 2.1 3-2 3-2 5-2l-1-2-3 1-3-2 3-.8 3.9-1 2-.6c4-1.1 4-1.1 7.1-3.6 3-.4 3-.4 6.5-.6l3.5-.2zm-267-3c3 1 3 1 4.2 3l.8 2h3l-5 10h-3v-2h-2v5h-3c-.3-4.8.6-8 2.5-12.4l1.4-3.2zm166 34c-2 5.2-4 7-9 9.4l-3.3 1.5C809 466 809 466 807 466v-2h2v-3l4 1v-2h-2v-2l-3-1c4.9-4.9 9.7-4 16-3m-405-35 1 2 6-1-3 4h-2l-.6 1.7c-2 3.3-4.3 5-7.4 7.3h-2l-3-4a22 22 0 0 1 7-9c2.3.2 2.3.2 4 1zm387 22h2v3h-2l.8 2c.3 3.9-1 5.8-2.9 9.1-1.1 2-1.1 2-.9 4.9h-2l-3-6h-2v2l-2-1 2.3-4 1.3-2.1c1.4-1.9 1.4-1.9 4.4-2.9v-4l4 1zm177 5v4l5 1v2l-6.2 1.5-3.5.8a33 33 0 0 1-8.3.7v-2l4-2-2-1v-2l-4-1 4.7-1 2.6-.6q3.8-.6 7.7-.4m-465-10c1 2 1 2 1 5l4-1c0 4-2.1 6.1-4.5 9.2l-1.3 1.7-3.2 4.1-2-1 1-7-5 2zm-35-135 4 1h6q-5.4 4.4-11.1 8.3l-3.2 2C476 314 476 314 473 314v-3h2l-1-3a99 99 0 0 1 9-7m129 143 1.3 2 1.7 2h4v6l4-1c-.2 2.4-.2 2.4-1 5-2.4 1.4-2.4 1.4-5 2-3-1-3-1-4.2-2.7-1-2.8-1-5-1-8l.1-3zm-215-81c2.6-.2 2.6-.2 5 0v2l2 2-4 1c.4 2 .4 2 2 4q4.2 1 8.6 1.3l2.4.2 6 .5v1c-7.7 1.6-15.2 2.3-22-2-1.6-3.5-1.6-3.5-2-7zm66 89 1 3-9.7 4-2.8 1.2-2.7 1-2.5 1c-2.3.8-2.3.8-6.3.8 1-2 1-2 4-3.1l3-.9-2-2-2 2-1-3c4-2.1 6.5-1.8 10.9-1.1 3.8.2 6.7-1.4 10.1-2.9m349-32h8a26 26 0 0 1-3.6 9.8l-1.3 2.4-1.1 1.8-4-1 .4-4.8.3-2.7c.3-2.5.3-2.5 1.3-5.5m20-34 3 2v3h-2v2h2a17 17 0 0 1-3 7c-3 1.2-3.9 1-7 0a24 24 0 0 1 7-14m42 51-1 2 4-1-1 3 3 1-5.3 1.5-3 .8c-2.7.7-2.7.7-5.7.7v-3h-3c1-2 1-2 2-3l-3-1 5.4-1 3-.7c2.6-.3 2.6-.3 4.6.7m68.2 16.3 3.8.7v1h16l3-1 4 2v1c-5.8 1.3-11.6 1.2-17.6 1.2h-8.8c-2.9-.2-5-1-7.6-2.2 2-3.2 3.7-3.2 7.2-2.7M1010 441l-1 6-5 1v-2l-1.9.5-2.5.6-2.4.6c-2.2.3-2.2.3-4.2-.7l1-4 5.2-1 3-.6q3.8-.6 7.8-.4"/><path d="M527 429c1.3 2.6 1.3 2.6 2 6-1.4 2.4-3 4-5 6l-4-1-1 2c-.8-2.4-1.1-3.6-.3-6.1l1.1-2 1-2.2c1.9-2.7 3-2.7 6.2-2.7m40-14a24 24 0 0 1 2 4c-1 3-1 3-3 4v2l5-1a41 41 0 0 1-5 10h-3c-1.5-2.5-2.1-4.2-1.6-7.2A45 45 0 0 1 567 415m-20-125h2c-.4 5.2-1 8.4-5 12-2.7.3-2.7.3-5 0l-2-5c4.3-5 4.3-5 7.8-5.3l2.2.3zm33 149 1 2h5v-2l4 2-4.9 4.4-2.7 2.5C580 450 580 450 578 451l-.8-1.9c-1.2-2.4-1.2-2.4-4.2-4.1zm392-60c9-.6 9-.6 13 1.8 2 2.2 2 2.2 3 5.2h-3v3h-2l-1 5h-3l3-7h-7v-2h3v-2h2v-3h-8zM567 259a38 38 0 0 1 5 5c.1 3.9-2.8 7-5 10l-3-1-4-1c1.3-3.9 2.5-5.9 6-8h2zm272 186-1 5c4-.6 4-.6 7-3l2 1v-3h2v2l4 1v1c-13.6 4.4-13.6 4.4-20 5v-6l-2-1c5.8-2 5.8-2 8-2m-215-33 3 3 2-2v2l3 1-6 13h-2l1.2-2.2.8-2.8a10 10 0 0 0-5-5zm32 21h2v2h2v11h-6c-1.3-2.7-1-5-1-8h3v-2l-2-1h2z"/><path d="m653 444 1 2h7l1 3 3 1-2 2-3-1 1 3 3 1v3c-4.3-.7-6-2.8-8.7-6a14 14 0 0 1-2.3-8m19-32 2 1-3.7 5.4-2.1 3c-2 2.4-3.3 3.5-6.2 4.6l-1-5h-2l2-5 2 2 3-1 2-.3c2.2-.5 2.2-.5 3.2-2.8zm-99 0a14 14 0 0 1 3 3 16 16 0 0 1-4 9c-3.2.8-3.2.8-6 1l-1-3h3v-7h3l1-2zm-169-46 1 2h9l-1 5c-4.1 1.4-6.7.8-11 0l-2-2v-3zm47-3v3l-1.9.2-2.4.2-2.4.3c-2.5.3-2.5.3-5.3 1.3l-4-4v-2c5.5-1.3 11-2.2 16 1m-50 74v2l2 1c-.5 4.3-3 6.2-6 9l-3-1c-.5-6.3-.5-6.3 1.8-9.4 2.2-1.6 2.2-1.6 5.2-1.6m207-17.4 3 1.4a93 93 0 0 1-10 9l-.9-2c-1-2.1-1-2.1-3.1-3 5.8-6.2 5.8-6.2 11-5.4M985 386h4v9l-6 2v2h-2l-2-4 1.4-1.3c1.8-1.7 1.8-1.7 2.6-4.7h2zm-296 2 2 1-1 4 5-1 1 3-10 5 1-4h-3l-1-4zm-214-21c0 3.2-.7 5.1-2 8h2v-2l5-1v-4h6a196 196 0 0 1-13 12c-2.2-2.2-2.4-3.1-3-6l-1-2zm200 32 4 2v2l-4 2 1 1 2-1 1 3c-3 2-3 2-6 2l-6-2 2.9-3.4 1.6-1.9zm-88-10h2c1 2.7 1.2 4.4.2 7.1q-1.5 3-3.2 5.9l-7-1c1.6-3.8 4.1-6.1 7-9zm30 39 4 3v2h3l-3 10-4-1h3v-3h-3v-2l-2-1c.9-5.7.9-5.7 2-8m335-12c-1.2 3.4-1.2 3.4-3 7-2.5 1.1-2.5 1.1-5 1-1.8-1.4-1.8-1.4-3-3 .8-2.4.8-2.4 2-5 3.5-1.2 5.5-.7 9 0m16-36h12v3h-2v2h-3v2l-4-1v-2h-4z"/><path d="m404 357 1 2 1.8-.7 2.2-.3a14 14 0 0 1 3 3l-2.4 1.8c-2.8 2.1-2.8 2.1-4.6 5.2v-2l-1.8-.3a10 10 0 0 1-5.2-3.7zm466-49h5v2h2q-.6 3.1-2 6l-3 1c-1.7 1.5-1.7 1.5-3 3-1.4-8.6-1.4-8.6 1-12M574.8 446.2l2.2.8 1 4c-1 1-1 1-3.6 1H572l-1 2-4-1v2h-2c1.8-4.5 4.6-9.2 9.8-8.8M938 405c1.1 3.3.9 5.6 0 9l-1 2q-4 .7-8 1c2-6.8 2-6.8 5-9h3zm13-14v2h2v2l-2 1h5c-2.1 2.6-2.1 2.6-5 5-3.3-.2-3.3-.2-6-1l-1-5c4.8-4 4.8-4 7-4"/><path d="m959 386 2 1-1 5h-2l-1 4-8 1 1-2h3v-2h-2l1-4 7-1zm-513 6 1 2-1 2h-2c-.2 2.4-.2 2.4 0 5l2 2-5 3-3-4-4 2a74 74 0 0 1 12-12m108-134v3l-5 2v3l2 1-7 2-2-2c.6-2.9 1.4-4.6 3.8-6.2 5.5-2.8 5.5-2.8 8.2-2.8M381 463l1 3h-4l-3 5h-3l1 3-3-1a10 10 0 0 1 1.8-7.7c3.2-3.4 4.8-3.8 9.2-2.3m376-41v3c-7.7 7-7.7 7-12 7l-1 2-1-2c1-2 1-2 4-3l-4-1zm-198-26h6v3l7 1a38 38 0 0 1-8.6 4.2l-2.9 1c-2.5.8-2.5.8-4.5-.2l2-3 2 1 1-6zm-12-7 4 1-.4 5.8-.3 3.3c-.3 2.9-.3 2.9-1.3 5.9v-2h-2v-2h-2v-5l-2-1 2-1.9c2.2-1.9 2.2-1.9 2-4.1m68 23v3l2 1c-4.3 5-4.3 5-7.8 5.3l-2.2-.3c0-4 0-4 2.3-6.7 2.7-2.3 2.7-2.3 5.7-2.3m-177.7-47.6 1.7 1.6v2l3.3-1.6 3.7-1.4 4 2-17 4v-2l4-1v-2l-4 1v-2l-2-1-1 2-4-2c4.1-1.2 7.5-1.9 11.3.4M854 340l1 2h2v2l2 1h-4v3h4c-1.7 5.8-1.7 5.8-4 8l-.8-3-1.2-3-3-1zM501 457l2 3 1.9-.6c2.1-.4 2.1-.4 4.1.6a17 17 0 0 1-3 7c-2.9-.6-3.9-.9-6-3 .4-3.6.4-3.6 1-7"/><path d="m434 365-1 2 4-1v2l-4 1v2h-8l-1-3h2v-3c3.3-.8 4.7-1.1 8 0m445-78 1 2 2.3-.6c2.7-.4 2.7-.4 5.7 1.6l-3 4-2-1-2.3 2-2.7 2-3-1zM391 480l2 1Zm-1 1 1 2 4 2c-4.3 3.7-8.3 5-14 5v-2h2l1-2 2 1v-3h3zm166-39h4l-1 10h-4v-2h-3v-2l2-1 1-4zm387-25v4l2 4-2.2.8-3 1-3 1.1-7.8 3.1v-3l8-1v-2h2l-1-7c3-1 3-1 5-1m-373-24 1 2h2l3 4c-2.4 1.2-4 1.1-6.6 1H565v-3l-2-2zm132-8c3 .3 4.6.6 6.8 2.8a10 10 0 0 1 1.2 7.2l-2 2c-2.6-.4-2.6-.4-5-1l2-2c.2-2.6.2-2.6 0-5l-3-1zm-144.1-7 3.1 1v8l-4-3v-2h-3l-1 2-5 1c4.8-7 4.8-7 9.9-7m459.1 62-1 2 1 1 1 2-9 2 1-6-4-1c4-.8 7-1 11 0m-594-27 4 2v5l-10 1a24 24 0 0 1 6-8"/><path d="M580 397a43 43 0 0 1-7 11h-2l-1-7 3.9-2 2.2-1.1c1.9-.9 1.9-.9 3.9-.9m106 54c1.9 1.5 1.9 1.5 3 3l-4 1-1-1-3 1-2-1-2 3h-2v2h-6c3.8-3 3.8-3 6-3v-3c3.8-1.8 6.8-2.5 11-2m176-126h4l1 6h-3v5h-3c-1.2-2.1-1.2-2.1-2-5 1.4-3.3 1.4-3.3 3-6M588 433l5 2-4 2 1 3-3 1-2 1c-2.1-.4-2.1-.4-4-1 1.5-3.8 3.8-5.6 7-8m111-48h3v3l4 1v5l-3 1-1-3-5-2-2-2 3-1zm111 70h3v4h5l1 2-4.9 2.5-2.7 1.4C809 466 809 466 807 466v-2h2v-3l4 1v-2h-2v-2l-3-1zm182-10v5c-3.7 1.2-7.2 1-11 1l2-1v-4c3.2-1 5.7-1 9-1m-188-9 1 2h2v2h4c-1 3-1.8 4.8-4 7l-1-3h2v-3h-2v2l-4-1 1 5-4-1zm-146-16c3 1 3 1 4.2 3l.8 2h3l-3 6h-4v-5h-2zm17-73h15v2l-5.3 1.6-3 .8c-2.7.6-2.7.6-5.7-.4zm-230-15v2l-3.4 1.3-3.6 1.7-1 3h-2l-1 2c-1-3-1-3-.3-5.5 2.8-5.4 5.5-6 11.3-4.5m115 105 1 7-1-2c-2.5.7-2.5.7-5 2-.9 2-.9 2-1 4h-2a53 53 0 0 1 2-10c2.1-.7 3.8-1 6-1"/><path d="M806 441h2v3h-2l.7 1.8c.3 2.2.3 2.2-1 3.9-1.7 1.3-1.7 1.3-4.7 2.3v-3h-2v-2l3-1v-4l4 1zM442 329l1 2h5v3c-2.3 2-2.3 2-5.4 4.2l-3 2.2C437 342 437 342 435 342v-2h2l1-4 7-2v-2l-3 1-2-3zm270 114-1 4-6 1-1 3-3-1v-4c6.5-3 6.5-3 11-3m-14 4 2 4a13 13 0 0 1-9 2l-2-1 1-4c2.9-.8 4.9-1 8-1m189-13c-1.5 3-4 3.5-7 5l-1 2h-3l-1-2h-2l1-3c4.4-2 8.2-2.2 13-2m-459-26 2 4h5c-2.6 2.7-5 5-8 7-1.3-2.9-2-4.8-2-8 1.5-1.7 1.5-1.7 3-3m515-12 1 2-2 3 1 2-1.9.3c-2.3.5-2.3.5-3.4 2.8l-.7 1.9h-3l-1 3-3 1c1.7-4.1 4.6-7 7.6-10.2l1.6-1.7zm-385-5c3.3 0 5.8.4 9 1h3v2l-5.3 1.5-3 .8c-2.7.7-2.7.7-5.7.7zm1 57h1v6l-2 .8c-2.2 1-2.2 1-2.8 3.3l-.2 1.9c-1.5-1-1.5-1-3-3-.2-3.7-.2-3.7 0-7h3v2h4zm362-16h3c1.4 2.8 1.1 5 1 8.1v5.9l2 1h-3a33 33 0 0 1-3-15M473 309v5l2 1c-3 1-3 1-6 0l-2.5 1.5-2.5 1.5-3-1a33 33 0 0 1 7.1-5.7l2.2-1.3c1.7-1 1.7-1 2.7-1m-54 110 1 2 6-1-3 4h-2l-2 4-2-1 1-4h-4l1-3 4 1zm91-136 2 1 3-1h2a8 8 0 0 1-2.7 5.8c-2.7 1.4-4.3 1.4-7.3 1.2 1.9-5.9 1.9-5.9 3-7"/><path d="m700 445 3 1h-2l1 4 6-1v2c-4.4 2-8.1 3.4-13 4 1-3 1-3 4-5l-1-4zm-192-13-1 3h-2v2l-8 3v-5l3.8-1.5 2.2-.8c2-.7 2-.7 5-.7m304-12h8c-.5 3.8-1.5 6-4 9v-4l-5-1zm-265-34 1 2-1 3 2 1h-3l-1 6h-2l-1 4c-1.5-5.1-.5-7.8 1.9-12.3 1.1-1.7 1.1-1.7 3.1-3.7m-148-13h6.6l3.7-.1q5 .2 9.7 1.1v1c-6.7 1.4-13.7 2.2-20-1zm75-20v2l3 1-1 3c-2.9.6-2.9.6-6 1l-2-2c.3-2 .3-2 1-4 2-1 2-1 5-1m-91 129h2l1 5-5 1v2h-5c.7-2.4.7-2.4 2-5 2.6-.8 2.6-.8 5-1zm445-34h5v3l2 1c-2 3-2 3-4.6 3.7l-2.4.3zm11-78c2 3 2 3 2 5l2-1v-2l4 1-4 7-4-2v-2l-2-2zm-385-12c.7 1.8.7 1.8 1 4-1.4 1.8-1.4 1.8-3 3l3 1h-4v-3l-9-2v-1l4.3-1 2.4-.6c2.3-.4 2.3-.4 5.3-.4m88-95 1 4 2 3-6 2v-3l-3 1-2-2zm-97 193 1 2 2 1c-2.4 2.4-3.8 2.5-7 3v2h-5l2-1 2-6z"/><path d="M474 352h3v3l1-2h3v2h2l1 3-8 1v-3l-2-1zm332 97h3c.8 2.4 1 3.7.4 6.1-2 2.7-4.2 3-7.4 3.9a57 57 0 0 1 4-10m204-8-1 6-4 1v-3l-6-2v-1q5.4-1.1 11-1M483 301l4 1h6a16 16 0 0 1-11 5c-.6-1.9-.6-1.9-1-4zm357 143h5l1 4q-3.4 1.6-7 3l-2-1zm-447-2 2 1-1 5 3 1-2 3h-2l-2-2-2-1c1-3 1.8-4.8 4-7m99-3-1 3h-2v2l-6 1 1-5c2.7-1.3 5-1 8-1m47-31 2.9.6c3 .7 3 .7 5.1-.6-.6 3.9-2.5 6-5 9v-4l-5-1zm298-33 3 1v2l2 1-1 5-4 1-2-5 3-1zm-424-23v5h-2v2l2 1-8-1c1.3-3.4 4-7 8-7m85-4h2v2h2c-.2 2.9-.2 2.9-1 6-2 1.3-2 1.3-4 2l-1 2zm389-68 2 2c-.4 3.6-.4 3.6-1 7-3.3.8-4.7 1.1-8 0l1-3h3l.4-2.4.6-2.6zM369 470l1.3 2c1.6 2.3 1.6 2.3 4.7 3l-2 5-4-2v-3l-3 1c1.9-4.9 1.9-4.9 3-6m136-18 4 1-2 6h-3l-1 2c-.7-2.2-.7-2.2-1-5 1.4-2.3 1.4-2.3 3-4m440-5c2.4-.3 2.4-.3 5.1-.2h2.8l2.1.2v1l9 1v1h-21zm-40.6-18.2c1.6 1.2 1.6 1.2 2.6 3.2-3.9 2.2-6.5 3.4-11 3 3-2 3-2 5-2l-1-2-3 1-3-2c7.3-2.2 7.3-2.2 10.4-1.2M562 423c1 3 1 3.9 0 7 .4 2.6.4 2.6 1 5l-3 1-2-2a20 20 0 0 1 4-11m-37-109 4 4c-.4 2.6-.4 2.6-1 5-3.9-.9-3.9-.9-5-2-.2-2.4-.2-2.4 0-5zm363-46 6 2-1 9-1-2-2-1c-.7-2-.7-2-1-4l1-1-2-1zM383 482v2l-5 2v2h-2v2h5v1h-9l1.5-1.8c1.8-2.2 1.8-2.2 1.5-5.2 2.9-1.3 4.8-2 8-2m80-30 1 3-13 5v-2h2v-2c3.3-1.7 6.3-3.3 10-4m154-9h3v5l-6 1-1-5c1-1 1-1 4-1m447-15-5.4 3-3 1.7c-2.6 1.3-2.6 1.3-4.6 1.3v-4l5.4-1.6 3-.8c2.6-.6 2.6-.6 4.6.4m-655 44 .4 2.4c.5 2.6.5 2.6 1.6 4.6-3 2-3 2-6 2v-4l-1-4c3-1 3-1 5-1m310-33 5 1-1 5c-6.6 1.1-6.6 1.1-10 0l7-3zm-260-58 2 1v2h6l-2 1v2l-6 4-1-4 2-1-2-4zm-26-45c2 3 2 3 1.6 5.7l-.6 2.3-5-3v2l-4-2a23 23 0 0 1 8-5m432-18 3 1v4l2 1-2 1v3l-3-1 1-2h-3zm-361-31 2 2-3 1v2l-4 1v2l-7 1q5.8-4.7 12-9"/><path d="M847 445h2v2l4 1v1l-4.8 1.5-2.7.8c-2.5.7-2.5.7-5.5.7v-2l3-1 2-2 2 1zm82 1 3 1v5h3v3c-4.4-1.3-6.3-3.3-9-7zm6 5 2 1Zm-520-84h7l1 4h-2l-1 2-5-2zm-31 85 1 2-2 3h-2l-.2 1.8c-1 2.8-2.6 4.2-4.8 6.2-.8-1.7-.8-1.7-1-4 2.3-2.7 2.3-2.7 5-5h2zm248-49 4 3c-1.7 5.8-1.7 5.8-4 8-1.8-3.3-2.1-4.6-1.1-8.3zm-80-123 1.9 2c2 2 2 2 4.1 3l-4 4v-2l-3-1c-.8-2-.8-2-1-4zM432 462v6l-4 1c-2-3-2-3-2-6 2-1 2-1 6-1m225-14 1 3h2l1 3 3 1v3a7 7 0 0 1-5.4-2.4L655 451l2-1zm-66-18 4 4 1-3 2 3-8 6-1-3 3-2-3-3zm70-14a14 14 0 0 1 3 3c-.3 2.2-.3 2.2-1 4h2l1-2v3l-4 2-1-5h-2zm-73-31 1 4h-2l-1 4h-2l-3-5zm-102-28v2c-1.7 1.7-1.7 1.7-4 3.6l-2.2 2-1.8 1.4-1-3 1-2-2-2 3.9-1 2.2-.6c1.9-.4 1.9-.4 3.9-.4m-24-1 1 5c-2.8 1-3.9 1-6.7 0l-2.3-1 1-3c4.8-1 4.8-1 7-1m186-4h6c-.3 2-.3 2-1 4l-3 1c-1.7 1.5-1.7 1.5-3 3-1-2.6-1.1-3.6 0-6.2zm209-13c2 1 2 1 4 3l-2 6h-4v-3l2-1v-2h-2v-2zm-66 122c1 4.4 1 4.4-1 8l-1 4-4-2zm-179-17q1.8 3.4 3 7h-2l2 2.9c2 3.1 2 3.1 2 5.1h-3c-2-3.3-2.2-5.9-2.1-9.7v-3zm-205-16 5 5-3 3-5-5zm569-31 2 3 3 4-5 3-1-5-4-1zm-565-29 3 1c-.3 2-.3 2-1 4-3 1-3 1-5.7-.3L405 371v-2l6 1zm80-4c-1.6 2-1.6 2-4 4-3.2-.2-3.2-.2-6-1v-2c3.6-2.3 6-2 10-1m-83-6a26 26 0 0 1 4 3c-2.4 2.1-3.5 3-6.7 3.2l-2.3-.2c.8-2.4.8-2.4 2-5z"/><path d="M649 355c2 .8 2 .8 4 2 .8 2.1.8 2.1 1 4l-5 1-2-5zm-237-5h2v3h2c.6 1.9.6 1.9 1 4l-2 2h-4v-2h2c-.3-2-.3-2-1-4l-2-1zm129-81c-2.5 4.8-2.5 4.8-5.2 5.8l-1.8.2c-1-3-1-3 0-6 4.8-1.1 4.8-1.1 7 0m257 184c3 3.6 3 3.6 3 7l2 1-6 4c0-4 0-4 2-6l-2-2 1-2-2-1zm127-22 3 1 1 8-3 1c-1-1-1-1-1.1-3v-5.1zm-294-15h2l-2 10-4 1 1.4-4.4.8-2.4c.8-2.2.8-2.2 1.8-4.2m184-1 2 3 4-2 2 2-3 4v-2l-1.8.6c-2.2.4-2.2.4-5.2-1.6zm114-3 .4 1.8 1.6 5.2-5 1v2h-2c1.2-4 2.4-6.9 5-10m-102-18 4 2v4c-3 1-3 1-6 0 .9-4.9.9-4.9 2-6m-385-32-1 3 2 1-4 2-4-4v-2c4.8-1.1 4.8-1.1 7 0m118-108 3 1 1 4 2 1-6 2-1-3h3v-2h-6c1.8-1.6 1.8-1.6 4-3m8 195h5v2l2 1h-3l-1 2-4-1v2h-2zm162-15h3l2 5c-4.6 3-4.6 3-8 3l1-1.7c1-2.2 1.5-4 2-6.3m-268-56c2.1.4 2.1.4 4 1h-2v2h2l1 3h-6c-.6-1.9-.6-1.9-1-4zm408-70h5v2h2l-1 4h-3v-3l-4 1zm-335-6 1 2h2c-.7 2-.7 2-2 4-2.1.8-2.1.8-4 1-1.1-3.7-1.1-3.7 0-6zM369 484h5v2l2 1-2 3-4-1zm583.2-34h4.8v1l-9 1v3l2 1h-5l-1-5c3-1 5-1.1 8.2-1M483 441v4l2 1-6 2v-4l-2-2q2.9-.9 6-1"/><path d="M931 416h5c-1.4 3.5-2.6 4.5-6 6l-2 2-1-3 4-2zm-505-51v3h-2c2 2 3.5 2.9 6 4h-6l-1-3-2-1-1-2c3-1 3-1 6-1m123-81c2 0 2 0 3.7 1.3l1.3 1.7c-.3 2.2-.3 2.2-1 4h-2v-2l-4-1zM382 459l3 1-1 5h-3v-2h-2l1-3zm285-7h7v3l-2 2h-3v-2h-2zm-59-40 3 1-5 6-3-1c1.4-3.2 2-4 5-6m-61-23 4 1-2 9-2-1v-2l-2-2zm0 4v2l2-1zm416-10v5l-3-1-1 1-6 1c2.6-3 5.9-6 10-6m-119-23c2 2 2 2 2 5h-2l1 4-5 1a57 57 0 0 1 4-10m-383 2v2l-9 1 1-3c2.9-1.4 5-.6 8 0"/><path d="M851 353h2v2l2 1-3 2v2l-4 1v2l-3-1v-2l1.9-.1 2.1-.9c1.3-3 1.3-3 2-6m-382 1v2l-2.4.8c-2.8 1-2.8 1-3.4 3.3l-.2 1.9v-2h-5l4-1v-4a24 24 0 0 1 7-1m-20-28 1 2 3-1-1 4c-3.3 1.1-5.6.8-9 0v-2l5 1zm31-23 .8 2c1 2.3 1 2.3 4.2 3l-4 2v-3l-5 2c.3-1.9.3-1.9 1-4zm-54 161 3 3 3 2-5 2v-3l-7-1c3.8-3 3.8-3 6-3m86-18 3 2h-2v3h-2l-1 2-4-2zm19-26 7 1-4 1-1 5h-2l-1-6zm407-15a24 24 0 0 1 1 7l-4 1-1-5h3zm-378-5 5 1v2l-9 3 2-4 2 1zm-7-10 1 3h2v-2h2l-2 6h3l-1 3v-2h-3v-2l-2-1-1-3zm433-7 2 3h-3v3h-2l-1 5h-3l2-3c.2-2.6.2-2.6 0-5l5-1zm-518-10c1.4 2.9.6 4.9 0 8v3l-2-1v-2h-2l-1-4zm18-22-3 4h-2v-2l-4 2 1-4c3-1 5-1 8 0m6-4h6l-1 5h-4zm-23-33 3 1-1 3h-6v2l-3-1 3.3-2.6 1.9-1.4zm38-29 2 3h-2v2l3 1-5 3-2-4 2-2zm51-8 2 1v2h-2v4h-2l-1 2-2-6h4zm252 178h3v4h5l1 2-8-1v-2l-3-1zm123-10c3 1 4.8 1.8 7 4-3 .8-4.5 1.2-7.3 0l-1.7-1zm-307-18 2 3-1 1.8c-1.2 2.2-1.2 2.2-1 5.2h-2l-1 3c-1.2-3.7-.6-4.7 1-8.2l1-2.7zm6-17v5h-3l-2 2-2-5c5.9-2 5.9-2 7-2"/><path d="M627 404h2l1 7-5 1zm48-57h7c0 3 0 3-1 5l-5-1zm202-42 2 4c-3 1-5 1-8 0l1-3zM559.6 453.9l2.4.1-2 1 1 3-5 2c-.6-1.9-.6-1.9-1-4 2-2 2-2 4.6-2.1M798 448l3 1-1 4-4 1v2l-2-1zm218-1-1 3h-6l-1-3c3-1 5-1 8 0m-542-4h5l1 2-1 3h-4zm451-3a62 62 0 0 1 5 5v3c-3.9-.9-3.9-.9-5-2zm-339-1 4 2-7 5-1-5 4-1zm451 0-10 3v-3c5.5-2.2 5.5-2.2 10 0m-106-10 2 1-2 8h-2v-7zm-368-6 2 1v10h-2c-1.8-3.3-2.1-4.6-1.1-8.3zm-116-31h2l-3 10-3-1 1-5h2zm385-6 3 2v3h-2v2h2l-1 2c-2-1-2-1-3.1-4l-.9-3zm-409 83h2l-1 4c-2.3.7-2.3.7-5 1-1.8-1.4-1.8-1.4-3-3h7zm236-20 2.4 1c2.4 1.1 2.4 1.1 4.6 1l-1 3c-2 .8-2 .8-4 1l-2-2zm358-9-1 2-3 1v-2h-2l-1 2v-2l-4-1c4-.8 7-1 11 0m-612-7 4 2-2 4-4-1zm534-21c1 3 1 3 1 6l-5 2a16 16 0 0 1 4-8m-326 0h2v3l2 1-2 2c-2.6-.4-2.6-.4-5-1z"/><path d="m448 394 1 2 4 1-7 5-1-2h2v-2.4c0-2.6 0-2.6 1-3.6m258-5a21 21 0 0 1 3 4c-.3 2.3-.3 2.3-1 4l-5-1 2-2c.7-2.6.7-2.6 1-5m-113-4a24 24 0 0 1 4 4c-.2 2.3-.2 2.3-1 4h-3c-1.1-5.7-1.1-5.7 0-8m45 1c2 .3 2 .3 4 1l2 3h-7c0-3 0-3 1-4m215-37 1 2 2 1h-2l-1 3v-2h-2l-1 3-1-5zm-435-1v8h-2v-3h-2v-4c2-1 2-1 4-1m85-57 2 1v3l-7 1c1-3 1-3 3-4.2zM388 447l1 2 4-1 1 5-3 2-.9-1.9c-1-2.2-1-2.2-3.1-4.1zm293-2h8v4l-8-2zm-254-30v5h-5v-4c3-1 3-1 5-1m199-7a37 37 0 0 1-4 8l-2-4c3.8-4 3.8-4 6-4m197 0h4a53 53 0 0 1-3 9c-1.6-2.6-2-3.7-1.6-6.7zm-158 2 4 1c-.7 2-.7 2-2 4-2.6.8-2.6.8-5 1 1.9-4.9 1.9-4.9 3-6m310-9a24 24 0 0 1 2 4l-1 3-3-1c-1.2-2.6-1.2-2.6-2-5zm-3-21h8v3h-7zm-552 87 7 1v3h-2v-2h-2v2h-2zm542-13 6 1 1 2-10 1zm-253-15 6 1c-3 2-5.6 3-9 4zm320-4 8 1v2h-8zm-104-12-1 3-14-1v-1l6.4-.5 3.6-.3zm-347-23 3 2-4 2v2l2 1h-3l-2-2z"/><path d="M589 385h4l1 6-5-2zm-130-19-3 2 1 2-7-1c2.7-4 4.5-4.4 9-3m393-10h3a37 37 0 0 1-4 8v-2l-3 1v-2l4-1-1-3zm-61 111c2.5.3 2.5.3 5 1l1 2-4 1v-2h-2l-1 2c0-3 0-3 1-4m46-12c-1.2 1.5-1.2 1.5-3 3h-4v-3c3.1-1 4-1 7 0m142-1a14 14 0 0 1-9 2v-2c3-1.5 5.7-.5 9 0m-117-8-2 4h-5v-3a24 24 0 0 1 7-1m-2-7-1 4c-3.3 0-5.8-.3-9-1 3.3-1.8 6.2-3 10-3m-48-4-1 5h-4l1-4c2-1 2-1 4-1m-247-8 4 2-4 5c-1.1-4.7-1.1-4.7 0-7m248-7h7v2h-2v2c-2-.3-2-.3-4-1zm-240 2-1 2-6 1-1-3c3-1 5-1 8 0m251-20 4 1-1 5c-3-1-3-1-5-2v-2h2zm-416-29 11 1v1l-10 1zm72-5h6l-5 5h-1zm374-28 1 2h2v2l2 1h-4v2h-2zm33-61h5l-3 9zm1-9 3 1-3 6-3-2zm-355-1c1 3.1 1 4 0 7l-4-3v-2zm31-3 3 2-1 2 3 1-2 3-3-1zM368 474c2 2 2.9 3.5 4 6h-5l-1-4h2zm41-2h2v2l3 1-3 3c-2-1-2-1-3-3zm414-17h5l-1 3-5 1zm-338-10 2 1-1 3-5 1v-3zm522-4v2l2 1c-4 1.2-6.2.8-10-1v-1c5.8-1 5.8-1 8-1m-284-4h2v5l2 1-4 1v-3l-2-2zm-127-8 2 4-2-1-1 2-4-2 1-2zm-72 0 1 4-4 3-2-1c2.8-4.9 2.8-4.9 5-6m132-5 1 2h2l-1 5-3-1zm157 1h3c.1 5.8.1 5.8-1 8h-3l2-4c-.4-2.1-.4-2.1-1-4m-394-2-1 5h-2v-3h-3v-2c2.5-1.2 3.4-.8 6 0m404-9v3a36 36 0 0 1-8 1c2.5-3.7 3.6-4 8-4m-251-6h1v6l-5 1zm111-8 2 2-6 5c.3-2.4.3-2.4 1-5zm273-4-5 5-2-1v-3c2.5-1.2 4.3-1 7-1m3-10 2 1-1 5-5 1v-2h2v-3h2zm-509-19-9 2 1-3c3.6-1.6 4.2-.9 8 1m34-7h6l1 4-6-1zm-10-8h3l1 6 3 1h-5v-3l-2-1zm409-58h2a29 29 0 0 1-3 8l-2-2zM391 483l4 2c-3.7 3-3.7 3-6 3v-3h2zm232-30-1 5-3 1v-5c2-1 2-1 4-1"/><path d="m970 451 5 1c-3 2-3 2-5 2v2l-3-1zm-280-1-2 3-7-2v-1c3.4-.8 5.7-1.1 9 0m298-5h4v5l-4-1zm-16 1v2h-7v-2c2.7-1.3 4.2-.7 7 0m52-10 5 1 1 2h-3v3l-3-1h2zm-53-31v2l-6 2-1-3c2.5-1.2 4.3-1 7-1m-402-9 2 1v3h-6l-1-2 3-1 2 1zm63-3c1 3 1 3 0 5.2l-1 1.8v-2l-4 1zm57-5 2 1-1 4h-4l-1-3zm-108 1v4h-6l-1-2c4.8-2 4.8-2 7-2m-124-6h2v2l2 1-2 2v3h-2c-1.1-3.3-.8-4.7 0-8m-13-21 7 1v3l-7-2zm-15-21 4 1-2 4-4-3h2zm6-7c2 2 2 2 2 6h-2l-1 2c-1.2-3.6-.5-4.6 1-8m426-3 3 1v4h-3l-2-4z"/></svg>